<?xml version="1.0" encoding="UTF-8" standalone="no"?>
<svg
   xmlns:dc="http://purl.org/dc/elements/1.1/"
   xmlns:cc="http://creativecommons.org/ns#"
   xmlns:rdf="http://www.w3.org/1999/02/22-rdf-syntax-ns#"
   xmlns:svg="http://www.w3.org/2000/svg"
   xmlns="http://www.w3.org/2000/svg"
   xmlns:sodipodi="http://sodipodi.sourceforge.net/DTD/sodipodi-0.dtd"
   xmlns:inkscape="http://www.inkscape.org/namespaces/inkscape"
   width="70"
   height="70"
   viewBox="0 0 70.000001 70.000001"
   class="css-1j8o68f"
   version="1.1"
   id="svg15"
   sodipodi:docname="icon.svg"
   inkscape:version="0.92.5 (2060ec1f9f, 2020-04-08)">
  <metadata
     id="metadata19">
    <rdf:RDF>
      <cc:Work
         rdf:about="">
        <dc:format>image/svg+xml</dc:format>
        <dc:type
           rdf:resource="http://purl.org/dc/dcmitype/StillImage" />
        <dc:title></dc:title>
      </cc:Work>
    </rdf:RDF>
  </metadata>
  <sodipodi:namedview
     pagecolor="#ffffff"
     bordercolor="#666666"
     borderopacity="1"
     objecttolerance="10"
     gridtolerance="10"
     guidetolerance="10"
     inkscape:pageopacity="0"
     inkscape:pageshadow="2"
     inkscape:window-width="1400"
     inkscape:window-height="831"
     id="namedview17"
     showgrid="false"
     inkscape:zoom="2.2668546"
     inkscape:cx="60.356836"
     inkscape:cy="31.182194"
     inkscape:window-x="0"
     inkscape:window-y="0"
     inkscape:window-maximized="1"
     inkscape:current-layer="svg15"
     fit-margin-bottom="-0.3"
     fit-margin-top="0"
     fit-margin-left="0"
     fit-margin-right="0" />
  <defs
     id="SvgjsDefs1276" />
  <g
     id="SvgjsG1277"
     featurekey="nRdZyp-0"
     transform="matrix(0.66699562,0,0,0.66699562,1.261334,2.6468446)"
     style="fill:#000000;fill-opacity:0.91246685">
    <path
       d="m 63.2,27.5 c -1.9,0 -3.8,0.6 -5.3,1.6 L 46.3,17.4 c 1,-1.5 1.6,-3.3 1.6,-5.3 0,-5.3 -4.3,-9.7 -9.7,-9.7 -5.4,0 -9.7,4.3 -9.7,9.7 0,1.9 0.6,3.8 1.6,5.3 L 18.4,29 c -1.5,-1 -3.3,-1.6 -5.3,-1.6 -5.3,0 -9.7,4.3 -9.7,9.7 0,5.4 4.3,9.7 9.7,9.7 5.4,0 9.7,-4.3 9.7,-9.7 0,-1.9 -0.6,-3.8 -1.6,-5.3 L 32.8,20.2 c 1.5,1 3.3,1.6 5.3,1.6 1.9,0 3.8,-0.6 5.3,-1.6 L 55,31.8 c -1,1.5 -1.6,3.3 -1.6,5.3 0,5.3 4.3,9.7 9.7,9.7 5.3,0 9.7,-4.3 9.7,-9.7 0,-5.4 -4.3,-9.6 -9.6,-9.6 z"
       id="path3"
       style="fill:#0dc000;fill-opacity:1;opacity:1"
       inkscape:connector-curvature="0" />
    <path
       d="m 88.2,52.5 c -5.3,0 -9.7,4.3 -9.7,9.7 0,1.9 0.6,3.8 1.6,5.3 L 68.4,79 c -1.5,-1 -3.3,-1.6 -5.3,-1.6 -1.9,0 -3.8,0.6 -5.3,1.6 L 46.3,67.4 c 1,-1.5 1.6,-3.3 1.6,-5.3 0,-5.3 -4.3,-9.7 -9.7,-9.7 -5.4,0 -9.7,4.3 -9.7,9.7 0,5.3 4.3,9.7 9.7,9.7 1.9,0 3.8,-0.6 5.3,-1.6 l 11.6,11.6 c -1,1.5 -1.6,3.3 -1.6,5.3 0,5.3 4.3,9.7 9.7,9.7 5.3,0 9.7,-4.3 9.7,-9.7 0,-1.9 -0.6,-3.8 -1.6,-5.3 L 82.9,70.2 c 1.5,1 3.3,1.6 5.3,1.6 5.3,0 9.7,-4.3 9.7,-9.7 -0.1,-5.3 -4.4,-9.6 -9.7,-9.6 z"
       id="path5"
       style="fill:#0dc000;fill-opacity:1"
       inkscape:connector-curvature="0" />
    <path
       d="m 38.2,77.5 c -1.9,0 -3.8,0.6 -5.3,1.6 L 21.3,67.4 c 1,-1.5 1.6,-3.3 1.6,-5.3 0,-1.9 -0.6,-3.8 -1.6,-5.3 L 32.9,45.2 c 1.5,1 3.3,1.6 5.3,1.6 5.3,0 9.7,-4.3 9.7,-9.7 0,-5.4 -4.3,-9.7 -9.7,-9.7 -5.4,0 -9.7,4.3 -9.7,9.7 0,1.9 0.6,3.8 1.6,5.3 L 18.4,54 c -1.5,-1 -3.3,-1.6 -5.3,-1.6 -5.3,0 -9.7,4.3 -9.7,9.7 0,5.3 4.3,9.7 9.7,9.7 1.9,0 3.8,-0.6 5.3,-1.6 L 30,81.8 c -1,1.5 -1.6,3.3 -1.6,5.3 0,5.3 4.3,9.7 9.7,9.7 5.4,0 9.7,-4.3 9.7,-9.7 0,-5.3 -4.3,-9.6 -9.6,-9.6 z"
       id="path7"
       style="fill:#000000;fill-opacity:0.91246685"
       inkscape:connector-curvature="0" />
    <path
       d="m 88.2,27.5 c -1.9,0 -3.8,0.6 -5.3,1.6 L 71.3,17.4 c 1,-1.5 1.6,-3.3 1.6,-5.3 0,-5.3 -4.3,-9.7 -9.7,-9.7 -5.3,0 -9.7,4.3 -9.7,9.7 0,5.4 4.3,9.7 9.7,9.7 1.9,0 3.8,-0.6 5.3,-1.6 l 11.6,11.6 c -1,1.5 -1.6,3.3 -1.6,5.3 0,1.9 0.6,3.8 1.6,5.3 L 68.4,54 c -1.5,-1 -3.3,-1.6 -5.3,-1.6 -5.3,0 -9.7,4.3 -9.7,9.7 0,5.3 4.3,9.7 9.7,9.7 5.3,0 9.7,-4.3 9.7,-9.7 0,-1.9 -0.6,-3.8 -1.6,-5.3 L 82.8,45.2 c 1.5,1 3.3,1.6 5.3,1.6 5.3,0 9.7,-4.3 9.7,-9.7 0,-5.4 -4.3,-9.6 -9.6,-9.6 z"
       id="path9"
       style="fill:#000000;fill-opacity:0.91246685"
       inkscape:connector-curvature="0" />
  </g>
</svg>
