<?xml version="1.0" encoding="UTF-8" standalone="no"?>
<svg
   xmlns:dc="http://purl.org/dc/elements/1.1/"
   xmlns:cc="http://creativecommons.org/ns#"
   xmlns:rdf="http://www.w3.org/1999/02/22-rdf-syntax-ns#"
   xmlns:svg="http://www.w3.org/2000/svg"
   xmlns="http://www.w3.org/2000/svg"
   xmlns:sodipodi="http://sodipodi.sourceforge.net/DTD/sodipodi-0.dtd"
   xmlns:inkscape="http://www.inkscape.org/namespaces/inkscape"
   width="20"
   height="20"
   viewBox="0 0 20 20"
   fill="none"
   version="1.1"
   id="svg4"
   sodipodi:docname="fb.svg"
   inkscape:version="0.92.5 (2060ec1f9f, 2020-04-08)">
  <metadata
     id="metadata10">
    <rdf:RDF>
      <cc:Work
         rdf:about="">
        <dc:format>image/svg+xml</dc:format>
        <dc:type
           rdf:resource="http://purl.org/dc/dcmitype/StillImage" />
      </cc:Work>
    </rdf:RDF>
  </metadata>
  <defs
     id="defs8" />
  <sodipodi:namedview
     pagecolor="#ffffff"
     bordercolor="#666666"
     borderopacity="1"
     objecttolerance="10"
     gridtolerance="10"
     guidetolerance="10"
     inkscape:pageopacity="0"
     inkscape:pageshadow="2"
     inkscape:window-width="1400"
     inkscape:window-height="831"
     id="namedview6"
     showgrid="false"
     inkscape:zoom="11.8"
     inkscape:cx="-13.177966"
     inkscape:cy="10"
     inkscape:window-x="0"
     inkscape:window-y="0"
     inkscape:window-maximized="1"
     inkscape:current-layer="svg4" />
  <path
     d="M14.9993 0.00416134L12.4058 0C9.49206 0 7.60908 1.9319 7.60908 4.92203V7.19141H5.0014C4.77607 7.19141 4.5936 7.37409 4.5936 7.59943V10.8875C4.5936 11.1128 4.77628 11.2953 5.0014 11.2953H7.60908V19.5922C7.60908 19.8175 7.79155 20 8.01688 20H11.4192C11.6445 20 11.827 19.8173 11.827 19.5922V11.2953H14.8759C15.1013 11.2953 15.2837 11.1128 15.2837 10.8875L15.285 7.59943C15.285 7.49123 15.2419 7.38762 15.1656 7.31105C15.0892 7.23448 14.9852 7.19141 14.877 7.19141H11.827V5.26763C11.827 4.34298 12.0473 3.87358 13.2518 3.87358L14.9989 3.87295C15.224 3.87295 15.4065 3.69027 15.4065 3.46514V0.411972C15.4065 0.187052 15.2242 0.00457747 14.9993 0.00416134Z"
     fill="#66C05D"
     id="path2"
     style="fill:#638929;fill-opacity:1" />
</svg>
