<?xml version="1.0" encoding="UTF-8" standalone="no"?>
<svg
   xmlns:dc="http://purl.org/dc/elements/1.1/"
   xmlns:cc="http://creativecommons.org/ns#"
   xmlns:rdf="http://www.w3.org/1999/02/22-rdf-syntax-ns#"
   xmlns:svg="http://www.w3.org/2000/svg"
   xmlns="http://www.w3.org/2000/svg"
   xmlns:sodipodi="http://sodipodi.sourceforge.net/DTD/sodipodi-0.dtd"
   xmlns:inkscape="http://www.inkscape.org/namespaces/inkscape"
   width="374.9689090511211"
   height="62.96438731610397"
   viewBox="0 0 374.9689090511211 62.96438731610397"
   class="css-1j8o68f"
   version="1.1"
   id="svg15"
   sodipodi:docname="logo.svg"
   inkscape:version="0.92.5 (2060ec1f9f, 2020-04-08)">
  <metadata
     id="metadata19">
    <rdf:RDF>
      <cc:Work
         rdf:about="">
        <dc:format>image/svg+xml</dc:format>
        <dc:type
           rdf:resource="http://purl.org/dc/dcmitype/StillImage" />
      </cc:Work>
    </rdf:RDF>
  </metadata>
  <sodipodi:namedview
     pagecolor="#ffffff"
     bordercolor="#666666"
     borderopacity="1"
     objecttolerance="10"
     gridtolerance="10"
     guidetolerance="10"
     inkscape:pageopacity="0"
     inkscape:pageshadow="2"
     inkscape:window-width="1400"
     inkscape:window-height="831"
     id="namedview17"
     showgrid="false"
     inkscape:zoom="1.1334273"
     inkscape:cx="187.48445"
     inkscape:cy="31.482193"
     inkscape:window-x="0"
     inkscape:window-y="0"
     inkscape:window-maximized="1"
     inkscape:current-layer="svg15" />
  <defs
     id="SvgjsDefs1276" />
  <g
     id="SvgjsG1277"
     featurekey="nRdZyp-0"
     transform="matrix(0.6669956175672609,0,0,0.6669956175672609,-2.267784845290051,-1.6007892277227902)"
     fill="#000000"
     style="fill-opacity:0.91246682;fill:#000000">
    <path
       d="M63.2,27.5c-1.9,0-3.8,0.6-5.3,1.6L46.3,17.4c1-1.5,1.6-3.3,1.6-5.3c0-5.3-4.3-9.7-9.7-9.7s-9.7,4.3-9.7,9.7  c0,1.9,0.6,3.8,1.6,5.3L18.4,29c-1.5-1-3.3-1.6-5.3-1.6c-5.3,0-9.7,4.3-9.7,9.7s4.3,9.7,9.7,9.7s9.7-4.3,9.7-9.7  c0-1.9-0.6-3.8-1.6-5.3l11.6-11.6c1.5,1,3.3,1.6,5.3,1.6c1.9,0,3.8-0.6,5.3-1.6L55,31.8c-1,1.5-1.6,3.3-1.6,5.3  c0,5.3,4.3,9.7,9.7,9.7c5.3,0,9.7-4.3,9.7-9.7S68.5,27.5,63.2,27.5z"
       id="path3"
       style="fill-opacity:0.91246682;fill:#000000" />
    <path
       d="M88.2,52.5c-5.3,0-9.7,4.3-9.7,9.7c0,1.9,0.6,3.8,1.6,5.3L68.4,79c-1.5-1-3.3-1.6-5.3-1.6c-1.9,0-3.8,0.6-5.3,1.6L46.3,67.4  c1-1.5,1.6-3.3,1.6-5.3c0-5.3-4.3-9.7-9.7-9.7s-9.7,4.3-9.7,9.7c0,5.3,4.3,9.7,9.7,9.7c1.9,0,3.8-0.6,5.3-1.6l11.6,11.6  c-1,1.5-1.6,3.3-1.6,5.3c0,5.3,4.3,9.7,9.7,9.7c5.3,0,9.7-4.3,9.7-9.7c0-1.9-0.6-3.8-1.6-5.3l11.6-11.6c1.5,1,3.3,1.6,5.3,1.6  c5.3,0,9.7-4.3,9.7-9.7C97.8,56.8,93.5,52.5,88.2,52.5z"
       id="path5"
       style="fill-opacity:0.91246682;fill:#000000" />
    <path
       d="M38.2,77.5c-1.9,0-3.8,0.6-5.3,1.6L21.3,67.4c1-1.5,1.6-3.3,1.6-5.3c0-1.9-0.6-3.8-1.6-5.3l11.6-11.6c1.5,1,3.3,1.6,5.3,1.6  c5.3,0,9.7-4.3,9.7-9.7s-4.3-9.7-9.7-9.7s-9.7,4.3-9.7,9.7c0,1.9,0.6,3.8,1.6,5.3L18.4,54c-1.5-1-3.3-1.6-5.3-1.6  c-5.3,0-9.7,4.3-9.7,9.7c0,5.3,4.3,9.7,9.7,9.7c1.9,0,3.8-0.6,5.3-1.6L30,81.8c-1,1.5-1.6,3.3-1.6,5.3c0,5.3,4.3,9.7,9.7,9.7  s9.7-4.3,9.7-9.7C47.8,81.8,43.5,77.5,38.2,77.5z"
       id="path7"
       style="fill-opacity:0.91246682;fill:#000000" />
    <path
       d="M88.2,27.5c-1.9,0-3.8,0.6-5.3,1.6L71.3,17.4c1-1.5,1.6-3.3,1.6-5.3c0-5.3-4.3-9.7-9.7-9.7c-5.3,0-9.7,4.3-9.7,9.7  s4.3,9.7,9.7,9.7c1.9,0,3.8-0.6,5.3-1.6l11.6,11.6c-1,1.5-1.6,3.3-1.6,5.3c0,1.9,0.6,3.8,1.6,5.3L68.4,54c-1.5-1-3.3-1.6-5.3-1.6  c-5.3,0-9.7,4.3-9.7,9.7c0,5.3,4.3,9.7,9.7,9.7c5.3,0,9.7-4.3,9.7-9.7c0-1.9-0.6-3.8-1.6-5.3l11.6-11.6c1.5,1,3.3,1.6,5.3,1.6  c5.3,0,9.7-4.3,9.7-9.7S93.5,27.5,88.2,27.5z"
       id="path9"
       style="fill-opacity:0.91246682;fill:#000000" />
  </g>
  <g
     id="SvgjsG1278"
     featurekey="Q4qmbg-0"
     transform="matrix(3.390706514632964,0,0,3.390706514632964,87.99999838318514,-10.478832497009506)"
     fill="#000000"
     style="fill-opacity:0.867374;fill:#000000">
    <path
       d="M9.26 20 l0 -12.72 l-3.62 8.66 l-1.12 -0.02 l-3.54 -8.66 l0 12.74 l-0.98 0 l0 -15 l1.04 0 l4.06 9.76 l4.08 -9.76 l1.06 0 l0 15 l-0.98 0 z M11.825395833333333 20 l0 -15 l7.36 0 l0 1.16 l-6.32 0 l0 5.7 l6.26 0 l0 0.92 l-6.26 0 l0 6.06 l6.46 0 l0 1.16 l-7.5 0 z M27.350791666666666 16.96 c-0.09334 0.41334 -0.23 0.80334 -0.41 1.17 s-0.41666 0.69 -0.71 0.97 s-0.65 0.5 -1.07 0.66 s-0.91 0.24 -1.47 0.24 l-3.64 0 l0 -15 l3.5 0 c1.0133 0 1.8633 0.23666 2.55 0.71 s1.13 1.27 1.33 2.39 c0.04 0.21334 0.07334 0.54334 0.1 0.99 s0.04666 0.96 0.06 1.54 s0.02 1.19 0.02 1.83 s-0.01 1.2533 -0.03 1.84 s-0.05 1.1167 -0.09 1.59 s-0.08666 0.83 -0.14 1.07 z M23.37079166666667 6.02 l-2.32 0.000019531 l0 12.9 l2.6 0 c0.36 0 0.68 -0.06334 0.96 -0.19 s0.53 -0.29332 0.75 -0.49998 s0.40334 -0.43666 0.55 -0.69 s0.26666 -0.5 0.36 -0.74 c0.06666 -0.17334 0.12332 -0.48668 0.16998 -0.94002 s0.08 -0.97 0.1 -1.55 s0.03 -1.1967 0.03 -1.85 s-0.01 -1.2667 -0.03 -1.84 s-0.05 -1.08 -0.09 -1.52 s-0.08666 -0.74666 -0.14 -0.92 c-0.08 -0.24 -0.18666 -0.49 -0.32 -0.75 s-0.31 -0.49334 -0.53 -0.7 s-0.5 -0.37666 -0.84 -0.51 s-0.75666 -0.2 -1.25 -0.2 z M28.6761875 20 l0 -15 l1.28 0 l0 15 l-1.28 0 z M38.321583333333336 16.22 c-0.01334 0.66666 -0.076582 1.25 -0.18992 1.75 s-0.30668 0.91334 -0.58002 1.24 s-0.63334 0.57 -1.08 0.73 s-1.01 0.24 -1.69 0.24 c-1.1733 0 -2.0266 -0.32666 -2.56 -0.98 s-0.8 -1.6467 -0.8 -2.98 l0 -7.4 c0 -1.3333 0.27 -2.3266 0.81 -2.98 s1.4633 -0.98 2.77 -0.98 c1.1733 0 2.0134 0.32666 2.52 0.98 s0.77332 1.6467 0.79998 2.98 l0.02 0.92 l-0.92 0 l-0.02 -1.16 c0 -0.33334 -0.03334 -0.67 -0.1 -1.01 s-0.18666 -0.65 -0.36 -0.93 s-0.41668 -0.50666 -0.73002 -0.68 s-0.73 -0.26 -1.25 -0.26 c-0.50666 0 -0.93 0.08 -1.27 0.24 s-0.61 0.38 -0.81 0.66 s-0.33666 0.61 -0.41 0.99 s-0.11 0.79 -0.11 1.23 l0.04 7.5 c0 0.92 0.17 1.64 0.51 2.16 s0.96334 0.78 1.87 0.78 c0.52 0 0.95 -0.07 1.29 -0.21 s0.60666 -0.33666 0.8 -0.59 s0.33 -0.56 0.41 -0.92 s0.12 -0.75334 0.12 -1.18 l0.02 -1.3 l0.92 0 z M47.06697916666666 20 l-1.1 -4.42 l-4.88 0 l-1.1 4.42 l-1 0 l4.14 -15 l0.86 0 l4.12 15 l-1.04 0 z M43.586979166666666 5.9399999999999995 l-2.26 8.68 l4.38 0 z M56.577770833333325 6.1 l0 13.9 l-1.16 0 l0 -13.9 l-3.26 0 l0 -1.1 l7.68 0 l0 1.1 l-3.26 0 z M60.54316666666665 20 l0 -15 l7.36 0 l0 1.16 l-6.32 0 l0 5.7 l6.26 0 l0 0.92 l-6.26 0 l0 6.06 l6.46 0 l0 1.16 l-7.5 0 z M75.16856249999998 16.22 c-0.01334 0.66666 -0.076582 1.25 -0.18992 1.75 s-0.30668 0.91334 -0.58002 1.24 s-0.63334 0.57 -1.08 0.73 s-1.01 0.24 -1.69 0.24 c-1.1733 0 -2.0266 -0.32666 -2.56 -0.98 s-0.8 -1.6467 -0.8 -2.98 l0 -7.4 c0 -1.3333 0.27 -2.3266 0.81 -2.98 s1.4633 -0.98 2.77 -0.98 c1.1733 0 2.0134 0.32666 2.52 0.98 s0.77332 1.6467 0.79998 2.98 l0.02 0.92 l-0.92 0 l-0.02 -1.16 c0 -0.33334 -0.03334 -0.67 -0.1 -1.01 s-0.18666 -0.65 -0.36 -0.93 s-0.41668 -0.50666 -0.73002 -0.68 s-0.73 -0.26 -1.25 -0.26 c-0.50666 0 -0.93 0.08 -1.27 0.24 s-0.61 0.38 -0.81 0.66 s-0.33666 0.61 -0.41 0.99 s-0.11 0.79 -0.11 1.23 l0.04 7.5 c0 0.92 0.17 1.64 0.51 2.16 s0.96334 0.78 1.87 0.78 c0.52 0 0.95 -0.07 1.29 -0.21 s0.60666 -0.33666 0.8 -0.59 s0.33 -0.56 0.41 -0.92 s0.12 -0.75334 0.12 -1.18 l0.02 -1.3 l0.92 0 z M83.45395833333332 20 l-0.02 -6.98 l-5.48 0 l0.02 6.98 l-1.16 0 l0 -15 l1.16 0 l-0.02 6.96 l5.48 0 l0.02 -6.96 l1.18 0 l0 15 l-1.18 0 z"
       id="path12"
       style="fill-opacity:0.867374;fill:#000000" />
  </g>
</svg>
